<?xml version="1.0" encoding="utf-8"?>
<!-- Generator: Adobe Illustrator 18.1.1, SVG Export Plug-In . SVG Version: 6.00 Build 0)  -->
<svg version="1.1" id="Layer_1" xmlns="http://www.w3.org/2000/svg" xmlns:xlink="http://www.w3.org/1999/xlink" x="0px" y="0px"
	 viewBox="0 0 968.2 179.7" enable-background="new 0 0 968.2 179.7" xml:space="preserve">
<text transform="matrix(1 0 0 1 99.2203 83.636)" fill="#FFFFFF" font-family="'Montserrat-Regular'" font-size="11">480</text>
<text transform="matrix(1 0 0 1 99.2203 97.8437)" fill="#FFFFFF" font-family="'Montserrat-Regular'" font-size="11">250</text>
<text transform="matrix(1 0 0 1 99.2203 109.0116)" fill="#FFFFFF" font-family="'Montserrat-Regular'" font-size="11">120</text>
<text transform="matrix(1 0 0 1 99.2205 126.3032)" fill="#FFFFFF" font-family="'Montserrat-Regular'" font-size="11">6</text>
<circle fill="none" stroke="#FFFFFF" stroke-miterlimit="10" cx="64.5" cy="101.3" r="25"/>
<circle fill="none" stroke="#FFFFFF" stroke-miterlimit="10" cx="64.5" cy="108.3" r="18"/>
<circle fill="none" stroke="#FFFFFF" stroke-miterlimit="10" cx="64.5" cy="123.6" r="2.8"/>
<circle fill="none" stroke="#FFFFFF" stroke-miterlimit="10" cx="64.5" cy="113.8" r="12.5"/>
<circle fill="#FF6333" cx="320.8" cy="88.8" r="8.8"/>
<circle fill="#FF3381" cx="320.8" cy="113.8" r="8.8"/>
<circle fill="#FF333D" cx="167.7" cy="88.1" r="8.8"/>
<circle fill="#33FFEE" cx="167.7" cy="113.8" r="8.8"/>
<text transform="matrix(1 0 0 1 187.7912 93.3921)" fill="#FFFFFF" font-family="'Montserrat-Regular'" font-size="11">Documentary </text>
<text transform="matrix(1 0 0 1 158.9585 55.7228)" fill="#FFFFFF" font-family="'Montserrat-Bold'" font-size="11">Genres</text>
<text transform="matrix(1 0 0 1 798.215 55.7228)" fill="#FFFFFF" font-family="'Montserrat-Bold'" font-size="11">Production Year</text>
<text transform="matrix(1 0 0 1 39.5288 55.7228)" fill="#FFFFFF" font-family="'Montserrat-Bold'" font-size="11">Runtime</text>
<text transform="matrix(1 0 0 1 187.7914 118.0582)"><tspan x="0" y="0" fill="#FFFFFF" font-family="'Montserrat-Regular'" font-size="11">Dram</tspan><tspan x="30.6" y="0" fill="#FFFFFF" font-family="'Montserrat-Regular'" font-size="11">a</tspan><tspan x="37.5" y="0" fill="#FFFFFF" font-family="'Montserrat-Regular'" font-size="11">/</tspan><tspan x="44.2" y="0" fill="#FFFFFF" font-family="'Montserrat-Regular'" font-size="11">Romance</tspan></text>
<text transform="matrix(1 0 0 1 340.2952 93.3921)"><tspan x="0" y="0" fill="#FFFFFF" font-family="'Montserrat-Regular'" font-size="11">Sci-F</tspan><tspan x="28.2" y="0" fill="#FFFFFF" font-family="'Montserrat-Regular'" font-size="11">i/</tspan><tspan x="38.5" y="0" fill="#FFFFFF" font-family="'Montserrat-Regular'" font-size="11">Fantasy</tspan></text>
<text transform="matrix(1 0 0 1 340.2952 118.058)" fill="#FFFFFF" font-family="'Montserrat-Regular'" font-size="11">Comedy </text>
<circle fill="#33FF8B" cx="470.4" cy="88.1" r="8.8"/>
<circle fill="#33C5FF" cx="470.4" cy="113.1" r="8.8"/>
<text transform="matrix(1 0 0 1 489.2269 118.0579)"><tspan x="0" y="0" fill="#FFFFFF" font-family="'Montserrat-Regular'" font-size="11">Thrille</tspan><tspan x="34" y="0" fill="#FFFFFF" font-family="'Montserrat-Regular'" font-size="11">r</tspan><tspan x="38.3" y="0" fill="#FFFFFF" font-family="'Montserrat-Regular'" font-size="11">/</tspan><tspan x="45.2" y="0" fill="#FFFFFF" font-family="'Montserrat-Regular'" font-size="11">Horror</tspan></text>
<text transform="matrix(1 0 0 1 893.6085 118.0579)" fill="#FFFFFF" font-family="'Montserrat-Regular'" font-size="11">2015</text>
<text transform="matrix(1 0 0 1 798.2149 118.0579)" fill="#FFFFFF" font-family="'Montserrat-Regular'" font-size="11">1913</text>
<text transform="matrix(1 0 0 1 489.2269 93.3918)" fill="#FFFFFF" font-family="'Montserrat-Regular'" font-size="11">Animation </text>
<g>
	<circle fill="#FFEB33" cx="611.5" cy="88.8" r="8.8"/>
	<text transform="matrix(1 0 0 1 631.0552 93.392)"><tspan x="0" y="0" fill="#FFFFFF" font-family="'Montserrat-Regular'" font-size="11">Gam</tspan><tspan x="25.9" y="0" fill="#FFFFFF" font-family="'Montserrat-Regular'" font-size="11">e</tspan><tspan x="33" y="0" fill="#FFFFFF" font-family="'Montserrat-Regular'" font-size="11">/</tspan><tspan x="39.9" y="0" fill="#FFFFFF" font-family="'Montserrat-Regular'" font-size="11">Musi</tspan><tspan x="66.4" y="0" fill="#FFFFFF" font-family="'Montserrat-Regular'" font-size="11">c/</tspan><tspan x="80.1" y="0" fill="#FFFFFF" font-family="'Montserrat-Regular'" font-size="11">Theatr</tspan><tspan x="116" y="0" fill="#FFFFFF" font-family="'Montserrat-Regular'" font-size="11">e</tspan></text>
</g>
<g>
	<linearGradient id="SVGID_1_" gradientUnits="userSpaceOnUse" x1="798.2151" y1="90.678" x2="918.2151" y2="90.678">
		<stop  offset="0" style="stop-color:#1A0001"/>
		<stop  offset="1" style="stop-color:#FF333D"/>
	</linearGradient>
	<path fill="url(#SVGID_1_)" d="M798.2,91.3c0,5.5,4.5,10,10,10h100c5.5,0,10-4.5,10-10v-1.3c0-5.5-4.5-10-10-10h-100
		c-5.5,0-10,4.5-10,10V91.3z"/>
</g>
</svg>
